<svg width="108" height="50" viewBox="0 0 108 50" fill="none" xmlns="http://www.w3.org/2000/svg">
<g filter="url(#filter0_d_1_1879)">
<path d="M7.97594 41.2101C7.3786 41.2101 6.82794 41.1074 6.32394 40.9021C5.82927 40.6874 5.4046 40.3888 5.04994 40.0061C4.7046 39.6141 4.4666 39.1474 4.33594 38.6061L6.28194 38.1861C6.40327 38.5688 6.61327 38.8674 6.91194 39.0821C7.21994 39.2968 7.58394 39.4041 8.00394 39.4041C8.3026 39.4041 8.56394 39.3528 8.78794 39.2501C9.02127 39.1381 9.1986 38.9888 9.31994 38.8021C9.4506 38.6154 9.51594 38.4008 9.51594 38.1581C9.51594 37.8501 9.39927 37.6028 9.16594 37.4161C8.9326 37.2201 8.5546 37.0614 8.03194 36.9401L7.58394 36.8421C6.55727 36.6181 5.80127 36.2588 5.31594 35.7641C4.8306 35.2601 4.58794 34.6488 4.58794 33.9301C4.58794 33.4821 4.6766 33.0714 4.85394 32.6981C5.03127 32.3248 5.27394 32.0028 5.58194 31.7321C5.89927 31.4521 6.26794 31.2374 6.68794 31.0881C7.10794 30.9294 7.5606 30.8501 8.04594 30.8501C8.5966 30.8501 9.10994 30.9528 9.58594 31.1581C10.0619 31.3634 10.4633 31.6574 10.7899 32.0401C11.1166 32.4228 11.3359 32.8754 11.4479 33.3981L9.52994 33.8181C9.41794 33.4448 9.22194 33.1601 8.94194 32.9641C8.67127 32.7588 8.35394 32.6561 7.98994 32.6561C7.73794 32.6561 7.50927 32.7074 7.30394 32.8101C7.10794 32.9034 6.94927 33.0388 6.82794 33.2161C6.71594 33.3841 6.65994 33.5754 6.65994 33.7901C6.65994 34.1168 6.78594 34.3688 7.03794 34.5461C7.28994 34.7141 7.66327 34.8541 8.15794 34.9661L8.60594 35.0641C9.62327 35.2881 10.3746 35.6428 10.8599 36.1281C11.3546 36.6134 11.6019 37.2341 11.6019 37.9901C11.6019 38.4661 11.5086 38.9001 11.3219 39.2921C11.1446 39.6841 10.8926 40.0248 10.5659 40.3141C10.2393 40.6034 9.8566 40.8274 9.41794 40.9861C8.97927 41.1354 8.4986 41.2101 7.97594 41.2101Z" fill="#00ACFF"/>
<path d="M15.2353 41.0001V32.9081H12.4353V31.0601H20.1213V32.9081H17.3213V41.0001H15.2353Z" fill="#00ACFF"/>
<path d="M25.7333 41.2801C25.08 41.2801 24.492 41.1821 23.9693 40.9861C23.4466 40.7808 22.9986 40.4914 22.6253 40.1181C22.252 39.7354 21.9626 39.2828 21.7573 38.7601C21.5613 38.2281 21.4633 37.6354 21.4633 36.9821V31.0601H23.5493V36.8841C23.5493 37.3881 23.638 37.8268 23.8153 38.2001C23.9926 38.5734 24.2446 38.8628 24.5713 39.0681C24.9073 39.2641 25.2993 39.3621 25.7473 39.3621C26.1953 39.3621 26.5826 39.2641 26.9093 39.0681C27.236 38.8628 27.488 38.5734 27.6653 38.2001C27.852 37.8268 27.9453 37.3881 27.9453 36.8841V31.0601H30.0313V36.9821C30.0313 37.6354 29.9286 38.2281 29.7233 38.7601C29.5273 39.2828 29.238 39.7354 28.8553 40.1181C28.482 40.4914 28.0293 40.7808 27.4973 40.9861C26.9746 41.1821 26.3866 41.2801 25.7333 41.2801Z" fill="#00ACFF"/>
<path d="M31.7068 41.0001V31.0601H35.5708C36.3548 31.0601 37.0688 31.1814 37.7128 31.4241C38.3568 31.6574 38.9121 31.9934 39.3788 32.4321C39.8455 32.8708 40.2048 33.3934 40.4568 34.0001C40.7088 34.6068 40.8348 35.2788 40.8348 36.0161C40.8348 36.7534 40.7041 37.4301 40.4428 38.0461C40.1908 38.6528 39.8315 39.1801 39.3648 39.6281C38.8981 40.0668 38.3381 40.4074 37.6848 40.6501C37.0408 40.8834 36.3268 41.0001 35.5428 41.0001H31.7068ZM33.7928 39.1521H35.4448C36.1075 39.1521 36.6815 39.0261 37.1668 38.7741C37.6521 38.5221 38.0255 38.1628 38.2868 37.6961C38.5481 37.2294 38.6788 36.6741 38.6788 36.0301C38.6788 35.3861 38.5481 34.8308 38.2868 34.3641C38.0255 33.8974 37.6521 33.5381 37.1668 33.2861C36.6815 33.0341 36.1075 32.9081 35.4448 32.9081H33.7928V39.1521Z" fill="#00ACFF"/>
<path d="M44.3076 41.0001V37.1361L40.8356 31.0601H43.1596L45.3856 35.2461L47.5976 31.0601H49.8656L46.3936 37.1361V41.0001H44.3076Z" fill="#00ACFF"/>
<path d="M48.8216 41.0001L52.7696 31.0601H54.9816L58.9436 41.0001H56.8016L55.9896 38.8161H51.6916L50.8796 41.0001H48.8216ZM52.3496 37.0521H55.3316L53.8336 33.0901L52.3496 37.0521Z" fill="#00ACFF"/>
<path d="M61.2474 41.0561C61.014 41.0561 60.804 41.0001 60.6174 40.8881C60.44 40.7761 60.2954 40.6268 60.1834 40.4401C60.0714 40.2534 60.0154 40.0481 60.0154 39.8241C60.0154 39.6001 60.0714 39.3948 60.1834 39.2081C60.2954 39.0214 60.44 38.8721 60.6174 38.7601C60.804 38.6481 61.014 38.5921 61.2474 38.5921C61.4807 38.5921 61.686 38.6481 61.8634 38.7601C62.05 38.8721 62.1994 39.0214 62.3114 39.2081C62.4234 39.3948 62.4794 39.6001 62.4794 39.8241C62.4794 40.0481 62.4234 40.2534 62.3114 40.4401C62.1994 40.6268 62.05 40.7761 61.8634 40.8881C61.686 41.0001 61.4807 41.0561 61.2474 41.0561Z" fill="#00ACFF"/>
<path d="M5.68018 21.0001V1.12006H18.5322V5.18006H10.4402V8.82006H17.5802V12.8801H10.4402V16.9401H18.8122V21.0001H5.68018Z" fill="#292E37"/>
<path d="M21.895 21.0001V1.12006H30.043C31.5924 1.12006 33.011 1.36272 34.299 1.84806C35.587 2.31472 36.6977 2.98672 37.631 3.86406C38.583 4.74139 39.311 5.78673 39.815 7.00006C40.3377 8.21339 40.599 9.55739 40.599 11.0321C40.599 12.5067 40.3377 13.8507 39.815 15.0641C39.311 16.2774 38.583 17.3321 37.631 18.2281C36.6977 19.1054 35.5777 19.7867 34.271 20.2721C32.983 20.7574 31.555 21.0001 29.987 21.0001H21.895ZM26.767 16.6881H29.735C30.9297 16.6881 31.9564 16.4641 32.815 16.0161C33.6924 15.5494 34.3644 14.8961 34.831 14.0561C35.3164 13.2161 35.559 12.2174 35.559 11.0601C35.559 9.90273 35.3164 8.90406 34.831 8.06406C34.3644 7.22406 33.6924 6.58006 32.815 6.13206C31.9564 5.66539 30.9297 5.43206 29.735 5.43206H26.767V16.6881Z" fill="#292E37"/>
<path d="M51.9839 21.5601C50.6399 21.5601 49.4265 21.3547 48.3439 20.9441C47.2799 20.5334 46.3559 19.9454 45.5719 19.1801C44.8065 18.4147 44.2185 17.5001 43.8079 16.4361C43.3972 15.3534 43.1919 14.1494 43.1919 12.8241V1.12006H48.0639V12.6001C48.0639 13.5147 48.2225 14.3081 48.5399 14.9801C48.8759 15.6521 49.3332 16.1747 49.9119 16.5481C50.5092 16.9027 51.2185 17.0801 52.0399 17.0801C52.8612 17.0801 53.5612 16.9027 54.1399 16.5481C54.7372 16.1747 55.1945 15.6521 55.5119 14.9801C55.8479 14.3081 56.0159 13.5147 56.0159 12.6001V1.12006H60.8879V12.8241C60.8879 14.1494 60.6732 15.3534 60.2439 16.4361C59.8332 17.5001 59.2359 18.4147 58.4519 19.1801C57.6865 19.9454 56.7532 20.5334 55.6519 20.9441C54.5505 21.3547 53.3279 21.5601 51.9839 21.5601Z" fill="#292E37"/>
<path d="M73.5504 21.5601C72.3931 21.5601 71.3011 21.3921 70.2744 21.0561C69.2664 20.7201 68.3424 20.2441 67.5024 19.6281C66.6811 19.0121 65.9718 18.2841 65.3744 17.4441C64.7771 16.5854 64.3104 15.6334 63.9744 14.5881C63.6571 13.5241 63.4984 12.3947 63.4984 11.2001C63.4984 10.0054 63.6571 8.87606 63.9744 7.81206C64.3104 6.72939 64.7771 5.74939 65.3744 4.87206C65.9904 3.97606 66.7184 3.21073 67.5584 2.57606C68.3984 1.92272 69.3224 1.42806 70.3304 1.09206C71.3571 0.737392 72.4398 0.560059 73.5784 0.560059C74.6424 0.560059 75.6504 0.709392 76.6024 1.00806C77.5731 1.30673 78.4411 1.73606 79.2064 2.29606C79.9904 2.83739 80.6531 3.50006 81.1944 4.28406C81.7544 5.04939 82.1744 5.91739 82.4544 6.88806L77.6944 7.95206C77.2838 7.01873 76.7144 6.30006 75.9864 5.79606C75.2584 5.29206 74.4278 5.04006 73.4944 5.04006C72.7851 5.04006 72.1224 5.19872 71.5064 5.51606C70.9091 5.81473 70.3864 6.24406 69.9384 6.80406C69.4904 7.34539 69.1451 7.98939 68.9024 8.73606C68.6598 9.46406 68.5384 10.2667 68.5384 11.1441C68.5384 12.0027 68.6598 12.7961 68.9024 13.5241C69.1451 14.2521 69.4904 14.8867 69.9384 15.4281C70.3864 15.9507 70.9184 16.3614 71.5344 16.6601C72.1504 16.9401 72.8224 17.0801 73.5504 17.0801C74.5211 17.0801 75.3704 16.8374 76.0984 16.3521C76.8451 15.8481 77.4424 15.1201 77.8904 14.1681L82.6504 15.2321C82.2771 16.5387 81.6518 17.6681 80.7744 18.6201C79.9158 19.5534 78.8704 20.2814 77.6384 20.8041C76.4064 21.3081 75.0438 21.5601 73.5504 21.5601Z" fill="#292E37"/>
<path d="M83.0321 21.0001L90.9001 1.12006H96.0801L103.948 21.0001H98.9081L97.5081 17.1361H89.3041L87.9041 21.0001H83.0321ZM90.7881 13.0481H96.0241L93.3921 5.79606L90.7881 13.0481Z" fill="#292E37"/>
</g>
<defs>
<filter id="filter0_d_1_1879" x="0.335938" y="0.560059" width="107.612" height="48.72" filterUnits="userSpaceOnUse" color-interpolation-filters="sRGB">
<feFlood flood-opacity="0" result="BackgroundImageFix"/>
<feColorMatrix in="SourceAlpha" type="matrix" values="0 0 0 0 0 0 0 0 0 0 0 0 0 0 0 0 0 0 127 0" result="hardAlpha"/>
<feOffset dy="4"/>
<feGaussianBlur stdDeviation="2"/>
<feComposite in2="hardAlpha" operator="out"/>
<feColorMatrix type="matrix" values="0 0 0 0 0 0 0 0 0 0 0 0 0 0 0 0 0 0 0.25 0"/>
<feBlend mode="normal" in2="BackgroundImageFix" result="effect1_dropShadow_1_1879"/>
<feBlend mode="normal" in="SourceGraphic" in2="effect1_dropShadow_1_1879" result="shape"/>
</filter>
</defs>
</svg>
